<svg width="234" height="66" fill="none" xmlns="http://www.w3.org/2000/svg"><path d="M35.4 25.3c.9 0 1.54.2 1.93.64.42.38.64 1.02.64 1.92v17.79c0 1.92-1.6 3.24-4.8 3.97-3.2.72-6.57 1.08-10.11 1.08-7.17 0-12.48-1.85-15.94-5.56C3.71 41.38 2 35.56 2 27.66 2 12.47 9.13 4.88 23.38 4.88c1.96 0 4 .2 6.14.58 2.13.38 3.93.91 5.38 1.6 1.45.68 2.17 1.45 2.17 2.3 0 .6-.23 1.39-.7 2.37-.47.94-1.05 1.79-1.73 2.56-.64.72-1.22 1.09-1.73 1.09-.13 0-.66-.2-1.6-.58a21.24 21.24 0 00-8.13-1.47c-3.75 0-6.55 1.2-8.38 3.58-1.8 2.4-2.69 6-2.69 10.82 0 9.73 3.65 14.59 10.95 14.59 1.7 0 3.37-.15 4.99-.45v-8.13h-5.63c-.69 0-1.18-.25-1.48-.76a5.02 5.02 0 01-.44-2.44V28.5c0-1.11.15-1.92.44-2.44.3-.5.8-.76 1.48-.76H35.4zM46.4 50.32c-2.55 0-3.83-.68-3.83-2.05V27.98a63.68 63.68 0 00-.58-7.68c-.13-.6-.19-1.04-.19-1.34 0-.68.85-1.2 2.56-1.54 1.75-.34 3.29-.5 4.6-.5.78 0 1.3.3 1.6.89.3.55.52 1.17.65 1.85.17.69.28 1.16.32 1.41.8-1.5 1.75-2.66 2.81-3.52a6.4 6.4 0 014.16-1.34c1.45 0 2.41.3 2.88.9.52.55.77 1.4.77 2.55 0 .9-.19 2.03-.57 3.4-.39 1.32-.86 1.98-1.41 1.98-.26 0-.7-.09-1.35-.26a6.6 6.6 0 00-1.66-.25c-1.15 0-2.18.34-3.07 1.02a8.2 8.2 0 00-2.05 2.18v20.54c0 1.37-1.28 2.05-3.84 2.05h-1.8zM69.13 50.32c-2.56 0-3.84-.68-3.84-2.05V18.64c0-1.37 1.28-2.05 3.84-2.05h1.8c2.56 0 3.84.68 3.84 2.05v29.63c0 1.37-1.28 2.05-3.84 2.05h-1.8zm.9-36.86c-3.16 0-4.74-.69-4.74-2.05v-5c0-1.36 1.58-2.04 4.74-2.04s4.74.68 4.74 2.05v4.99c0 1.36-1.58 2.05-4.74 2.05zM83.25 63.38c-2.56 0-3.83-.69-3.83-2.05V27.98a63.68 63.68 0 00-.58-7.68c-.13-.6-.2-1.04-.2-1.34 0-.68.86-1.2 2.57-1.54 1.75-.34 3.28-.5 4.6-.5.77 0 1.3.3 1.6.89.3.55.52 1.17.65 1.85.17.64.27 1.1.31 1.35a9.08 9.08 0 013.4-3.46 10.1 10.1 0 015.18-1.34c2.3 0 4.35.68 6.14 2.05a12.78 12.78 0 014.3 5.88 25.51 25.51 0 011.53 9.35c0 5.29-1.2 9.5-3.59 12.6-2.34 3.08-5.65 4.61-9.91 4.61-2.52 0-4.7-.66-6.53-1.98v12.6c0 1.37-1.28 2.06-3.84 2.06h-1.8zm10.12-20.16c3.96 0 5.95-3.25 5.95-9.73 0-6.36-1.73-9.54-5.18-9.54-2.05 0-3.8 1.26-5.25 3.78V42a9.07 9.07 0 004.48 1.22zM127.5 50.7c-5.64 0-9.84-1.49-12.61-4.48-2.73-3.03-4.1-7.2-4.1-12.54 0-6.02 1.37-10.43 4.1-13.25 2.77-2.81 6.59-4.22 11.45-4.22 4.74 0 8.22 1.53 10.44 4.6 2.26 3.08 3.39 7.05 3.39 11.91 0 .51-.45 1.28-1.35 2.3-.85.99-1.5 1.48-1.92 1.48h-16.32c.22 2.43.94 4.16 2.18 5.18 1.24 1.02 2.96 1.54 5.18 1.54 1.2 0 2.28-.13 3.27-.39.98-.3 2-.66 3.07-1.09a4.02 4.02 0 011.4-.5c.43 0 .9.31 1.41.95.56.6 1 1.3 1.35 2.11.38.77.57 1.37.57 1.8 0 .98-.66 1.83-1.98 2.56-1.32.68-2.9 1.2-4.74 1.53a26.7 26.7 0 01-4.8.51zm3.45-20.54c0-1.96-.38-3.52-1.15-4.67a3.84 3.84 0 00-3.46-1.8c-3.16 0-5.08 2.16-5.76 6.47h10.37zM152.52 50.64a9 9 0 01-6.01-2.11c-1.67-1.45-2.5-3.84-2.5-7.17V3.6c0-1.07.96-1.6 2.88-1.6h.7c1.97 0 2.95.53 2.95 1.6v37.44c0 1.54.28 2.62.83 3.26.56.6 1.32.9 2.3.9.6 0 1.1-.04 1.48-.13.42-.13.74-.19.96-.19.42 0 .79.47 1.08 1.4.3.9.45 1.59.45 2.06 0 1.53-1.7 2.3-5.12 2.3zM173.83 50.64c-10.67 0-16-5.65-16-16.96 0-5.76 1.3-10.1 3.9-13 2.6-2.94 6.34-4.4 11.2-4.4 4.48 0 7.83 1.44 10.05 4.34 2.22 2.9 3.33 7.02 3.33 12.36 0 .42-.32 1.02-.96 1.79-.6.77-1.1 1.15-1.47 1.15h-19.14c.25 3.24 1.13 5.61 2.62 7.1 1.5 1.45 3.67 2.18 6.53 2.18 1.62 0 3.03-.2 4.23-.58 1.23-.38 2.28-.79 3.13-1.21.9-.47 1.4-.7 1.54-.7.47 0 1 .48 1.6 1.47.64.98.96 1.7.96 2.17 0 .68-.58 1.37-1.73 2.05-1.11.64-2.56 1.17-4.35 1.6-1.8.43-3.6.64-5.44.64zm5.76-19.84c0-2.94-.58-5.18-1.73-6.72-1.11-1.58-2.8-2.37-5.06-2.37-4.82 0-7.5 3.03-8.06 9.09h14.85zM198.15 50.77c-1.8 0-3.48-.22-5.06-.64a13.5 13.5 0 01-3.84-1.6c-.93-.64-1.4-1.28-1.4-1.92 0-.56.3-1.3.9-2.24.63-.98 1.19-1.47 1.66-1.47.08 0 .5.23 1.28.7.76.43 1.64.81 2.62 1.15.98.34 2.1.51 3.33.51 1.83 0 3.22-.34 4.16-1.02a3.73 3.73 0 001.4-3.14 3.6 3.6 0 00-1.47-3.07 16.69 16.69 0 00-4.54-2.17 29.16 29.16 0 01-4.41-1.99 8.82 8.82 0 01-2.95-2.94 9.54 9.54 0 01-1.22-5.06c0-2.86 1-5.16 3.01-6.91 2-1.8 4.63-2.69 7.88-2.69 2.21 0 4.24.3 6.07.9 1.84.55 2.76 1.26 2.76 2.11 0 .64-.28 1.45-.84 2.43-.5.98-1 1.47-1.47 1.47-.17-.04-.74-.3-1.73-.76a8.8 8.8 0 00-4.03-.77c-1.5 0-2.7.32-3.64.96a3.13 3.13 0 00-1.41 2.75 3.4 3.4 0 001.08 2.69c.77.64 2.12 1.28 4.04 1.92 2.98 1.02 5.3 2.3 6.97 3.84 1.67 1.53 2.5 3.75 2.5 6.65a10.06 10.06 0 01-5.7 9.02 13.4 13.4 0 01-5.95 1.29zM221.07 50.77c-1.8 0-3.48-.22-5.06-.64a13.5 13.5 0 01-3.84-1.6c-.94-.64-1.4-1.28-1.4-1.92 0-.56.3-1.3.89-2.24.64-.98 1.2-1.47 1.66-1.47.09 0 .52.23 1.28.7.77.43 1.65.81 2.63 1.15.98.34 2.09.51 3.33.51 1.83 0 3.22-.34 4.16-1.02a3.72 3.72 0 001.4-3.14 3.6 3.6 0 00-1.47-3.07 16.7 16.7 0 00-4.54-2.17 29.25 29.25 0 01-4.42-1.99 8.82 8.82 0 01-2.94-2.94 9.54 9.54 0 01-1.22-5.06c0-2.86 1-5.16 3.01-6.91 2-1.8 4.63-2.69 7.87-2.69 2.22 0 4.25.3 6.08.9 1.84.55 2.75 1.26 2.75 2.11 0 .64-.27 1.45-.83 2.43-.51.98-1 1.47-1.47 1.47-.17-.04-.75-.3-1.73-.76a8.8 8.8 0 00-4.03-.77c-1.5 0-2.7.32-3.65.96a3.13 3.13 0 00-1.4 2.75 3.4 3.4 0 001.08 2.69c.77.64 2.11 1.28 4.03 1.92 3 1.02 5.32 2.3 6.98 3.84 1.66 1.53 2.5 3.75 2.5 6.65a10.07 10.07 0 01-5.7 9.02 13.4 13.4 0 01-5.95 1.29z" fill="#4A5568"/></svg>